HIERARCHY
ROOT Hips
{
	OFFSET 0.000000 97.167313 0.000000
	CHANNELS 6 Xposition Yposition Zposition Xrotation Yrotation Zrotation
	JOINT Spine
	{
		OFFSET 0.000000 13.784798 0.064400
		CHANNELS 3 Xrotation Yrotation Zrotation
		JOINT Spine1
		{
			OFFSET 0.000000 12.037903 0.404700
			CHANNELS 3 Xrotation Yrotation Zrotation
			JOINT Spine2
			{
				OFFSET 0.000000 17.795601 0.420200
				CHANNELS 3 Xrotation Yrotation Zrotation
				JOINT Neck
				{
					OFFSET 0.000000 39.131302 11.954600
					CHANNELS 3 Xrotation Yrotation Zrotation
					JOINT Head
					{
						OFFSET 0.000000 14.456192 15.627699
						CHANNELS 3 Xrotation Yrotation Zrotation
						JOINT HeadTop_End
						{
							OFFSET 0.000000 15.703506 7.603401
							CHANNELS 3 Xrotation Yrotation Zrotation
							End Site
							{
								OFFSET 0.000000 17.447403 0.000000
							}
						}
					}
				}
				JOINT LeftShoulder
				{
					OFFSET 17.399500 24.608795 1.168800
					CHANNELS 3 Xrotation Yrotation Zrotation
					JOINT LeftArm
					{
						OFFSET 18.980635 5.765305 1.818600
						CHANNELS 3 Xrotation Yrotation Zrotation
						JOINT LeftForeArm
						{
							OFFSET 49.290169 0.000000 0.000000
							CHANNELS 3 Xrotation Yrotation Zrotation
							JOINT LeftHand
							{
								OFFSET 31.562012 0.000000 0.000000
								CHANNELS 3 Xrotation Yrotation Zrotation
								JOINT LeftHandThumb1
								{
									OFFSET 6.133995 -4.388519 7.076070
									CHANNELS 3 Xrotation Yrotation Zrotation
									JOINT LeftHandThumb2
									{
										OFFSET 6.037666 -3.485840 3.485847
										CHANNELS 3 Xrotation Yrotation Zrotation
										JOINT LeftHandThumb3
										{
											OFFSET 6.496506 -3.750763 3.750761
											CHANNELS 3 Xrotation Yrotation Zrotation
											JOINT LeftHandThumb4
											{
												OFFSET 5.616882 -3.242905 3.242910
												CHANNELS 3 Xrotation Yrotation Zrotation
												End Site
												{
													OFFSET -1.254608 7.132141 0.375429
												}
											}
										}
									}
								}
								JOINT LeftHandPinky1
								{
									OFFSET 18.920792 -0.453171 -11.426712
									CHANNELS 3 Xrotation Yrotation Zrotation
									JOINT LeftHandPinky2
									{
										OFFSET 4.919586 0.000000 0.000000
										CHANNELS 3 Xrotation Yrotation Zrotation
										JOINT LeftHandPinky3
										{
											OFFSET 5.233047 0.000000 0.000000
											CHANNELS 3 Xrotation Yrotation Zrotation
											JOINT LeftHandPinky4
											{
												OFFSET 5.571716 0.000000 0.000000
												CHANNELS 3 Xrotation Yrotation Zrotation
												End Site
												{
													OFFSET -3.459808 4.342407 -0.466164
												}
											}
										}
									}
								}
								JOINT LeftHandRing1
								{
									OFFSET 22.726120 -0.094986 -6.500475
									CHANNELS 3 Xrotation Yrotation Zrotation
									JOINT LeftHandRing2
									{
										OFFSET 6.408615 0.000000 0.000000
										CHANNELS 3 Xrotation Yrotation Zrotation
										JOINT LeftHandRing3
										{
											OFFSET 6.150223 0.000000 0.000000
											CHANNELS 3 Xrotation Yrotation Zrotation
											JOINT LeftHandRing4
											{
												OFFSET 6.145386 0.000000 0.000000
												CHANNELS 3 Xrotation Yrotation Zrotation
												End Site
												{
													OFFSET -3.671402 4.923981 -0.202372
												}
											}
										}
									}
								}
								JOINT LeftHandMiddle1
								{
									OFFSET 23.373947 0.000000 0.000001
									CHANNELS 3 Xrotation Yrotation Zrotation
									JOINT LeftHandMiddle2
									{
										OFFSET 6.996567 0.000000 0.000000
										CHANNELS 3 Xrotation Yrotation Zrotation
										JOINT LeftHandMiddle3
										{
											OFFSET 7.015945 0.000000 0.000000
											CHANNELS 3 Xrotation Yrotation Zrotation
											JOINT LeftHandMiddle4
											{
												OFFSET 7.721573 0.000000 0.000000
												CHANNELS 3 Xrotation Yrotation Zrotation
												End Site
												{
													OFFSET -4.651108 6.158463 0.251582
												}
											}
										}
									}
								}
								JOINT LeftHandIndex1
								{
									OFFSET 21.310577 -0.490082 6.209344
									CHANNELS 3 Xrotation Yrotation Zrotation
									JOINT LeftHandIndex2
									{
										OFFSET 7.536453 0.000000 0.000000
										CHANNELS 3 Xrotation Yrotation Zrotation
										JOINT LeftHandIndex3
										{
											OFFSET 7.512344 0.000000 0.000000
											CHANNELS 3 Xrotation Yrotation Zrotation
											JOINT LeftHandIndex4
											{
												OFFSET 10.212402 0.000000 0.000001
												CHANNELS 3 Xrotation Yrotation Zrotation
												End Site
												{
													OFFSET -5.180801 8.690506 1.388433
												}
											}
										}
									}
								}
							}
						}
					}
				}
				JOINT RightShoulder
				{
					OFFSET -17.399500 24.608795 1.168800
					CHANNELS 3 Xrotation Yrotation Zrotation
					JOINT RightArm
					{
						OFFSET -18.980635 5.765305 1.818600
						CHANNELS 3 Xrotation Yrotation Zrotation
						JOINT RightForeArm
						{
							OFFSET -49.290169 0.000000 0.000000
							CHANNELS 3 Xrotation Yrotation Zrotation
							JOINT RightHand
							{
								OFFSET -31.562012 0.000000 0.000000
								CHANNELS 3 Xrotation Yrotation Zrotation
								JOINT RightHandThumb1
								{
									OFFSET -6.133995 -4.388519 7.076070
									CHANNELS 3 Xrotation Yrotation Zrotation
									JOINT RightHandThumb2
									{
										OFFSET -6.037666 -3.485840 3.485847
										CHANNELS 3 Xrotation Yrotation Zrotation
										JOINT RightHandThumb3
										{
											OFFSET -6.496506 -3.750763 3.750761
											CHANNELS 3 Xrotation Yrotation Zrotation
											JOINT RightHandThumb4
											{
												OFFSET -5.616882 -3.242905 3.242910
												CHANNELS 3 Xrotation Yrotation Zrotation
												End Site
												{
													OFFSET 1.254608 7.132141 0.375429
												}
											}
										}
									}
								}
								JOINT RightHandIndex1
								{
									OFFSET -21.310577 -0.490082 6.209344
									CHANNELS 3 Xrotation Yrotation Zrotation
									JOINT RightHandIndex2
									{
										OFFSET -7.536453 0.000000 0.000000
										CHANNELS 3 Xrotation Yrotation Zrotation
										JOINT RightHandIndex3
										{
											OFFSET -7.512344 0.000000 0.000000
											CHANNELS 3 Xrotation Yrotation Zrotation
											JOINT RightHandIndex4
											{
												OFFSET -10.212402 0.000000 0.000001
												CHANNELS 3 Xrotation Yrotation Zrotation
												End Site
												{
													OFFSET 5.180801 8.690506 1.388433
												}
											}
										}
									}
								}
								JOINT RightHandMiddle1
								{
									OFFSET -23.373947 0.000000 0.000001
									CHANNELS 3 Xrotation Yrotation Zrotation
									JOINT RightHandMiddle2
									{
										OFFSET -6.996567 0.000000 0.000000
										CHANNELS 3 Xrotation Yrotation Zrotation
										JOINT RightHandMiddle3
										{
											OFFSET -7.015945 0.000000 0.000000
											CHANNELS 3 Xrotation Yrotation Zrotation
											JOINT RightHandMiddle4
											{
												OFFSET -7.721573 0.000000 0.000000
												CHANNELS 3 Xrotation Yrotation Zrotation
												End Site
												{
													OFFSET 4.651108 6.158463 0.251582
												}
											}
										}
									}
								}
								JOINT RightHandRing1
								{
									OFFSET -22.726120 -0.094986 -6.500475
									CHANNELS 3 Xrotation Yrotation Zrotation
									JOINT RightHandRing2
									{
										OFFSET -6.408615 0.000000 0.000000
										CHANNELS 3 Xrotation Yrotation Zrotation
										JOINT RightHandRing3
										{
											OFFSET -6.150223 0.000000 0.000000
											CHANNELS 3 Xrotation Yrotation Zrotation
											JOINT RightHandRing4
											{
												OFFSET -6.145386 0.000000 0.000000
												CHANNELS 3 Xrotation Yrotation Zrotation
												End Site
												{
													OFFSET 3.671402 4.923981 -0.202372
												}
											}
										}
									}
								}
								JOINT RightHandPinky1
								{
									OFFSET -18.920792 -0.453171 -11.426712
									CHANNELS 3 Xrotation Yrotation Zrotation
									JOINT RightHandPinky2
									{
										OFFSET -4.919586 0.000000 0.000000
										CHANNELS 3 Xrotation Yrotation Zrotation
										JOINT RightHandPinky3
										{
											OFFSET -5.233047 0.000000 0.000000
											CHANNELS 3 Xrotation Yrotation Zrotation
											JOINT RightHandPinky4
											{
												OFFSET -5.571716 0.000000 0.000000
												CHANNELS 3 Xrotation Yrotation Zrotation
												End Site
												{
													OFFSET 3.459808 4.342407 -0.466164
												}
											}
										}
									}
								}
							}
						}
					}
				}
			}
		}
	}
	JOINT LeftUpLeg
	{
		OFFSET 19.899099 -7.885101 -3.429500
		CHANNELS 3 Xrotation Yrotation Zrotation
		JOINT LeftLeg
		{
			OFFSET 1.745560 -36.997807 10.304700
			CHANNELS 3 Xrotation Yrotation Zrotation
			JOINT LeftFoot
			{
				OFFSET -1.745558 -29.803308 -13.615400
				CHANNELS 3 Xrotation Yrotation Zrotation
				JOINT LeftToeBase
				{
					OFFSET 1.181900 -18.539904 15.226099
					CHANNELS 3 Xrotation Yrotation Zrotation
					JOINT LeftToe_End
					{
						OFFSET -0.863701 1.402801 16.534700
						CHANNELS 3 Xrotation Yrotation Zrotation
						End Site
						{
							OFFSET 0.000000 16.616566 0.000000
						}
					}
				}
			}
		}
	}
	JOINT RightUpLeg
	{
		OFFSET -19.899099 -7.885101 -3.429500
		CHANNELS 3 Xrotation Yrotation Zrotation
		JOINT RightLeg
		{
			OFFSET -1.745560 -36.997807 10.304700
			CHANNELS 3 Xrotation Yrotation Zrotation
			JOINT RightFoot
			{
				OFFSET 1.745558 -29.803308 -13.615400
				CHANNELS 3 Xrotation Yrotation Zrotation
				JOINT RightToeBase
				{
					OFFSET -1.181900 -18.539904 15.226099
					CHANNELS 3 Xrotation Yrotation Zrotation
					JOINT RightToe_End
					{
						OFFSET 0.863701 1.402801 16.534700
						CHANNELS 3 Xrotation Yrotation Zrotation
						End Site
						{
							OFFSET 0.000000 16.616566 0.000000
						}
					}
				}
			}
		}
	}
}
MOTION
Frames: 5
Frame Time: 0.033333
-3.023629 84.649429 3.257554 29.587830 -79.751529 28.762801 23.118020 1.987334 0.864405 1.957271 0.728107 -1.564814 1.940417 0.805839 -1.616286 0.980287 12.041137 -5.938858 -9.130659 29.043655 -9.135941 -0.000002 0.000002 -0.000000 -0.368199 -20.146743 11.220268 3.114918 -10.645597 -57.045832 -92.848376 -59.532987 -79.702522 -1.990618 -23.132751 -9.630396 4.766506 -0.870671 -14.442464 15.732332 12.674828 8.828577 63.225149 -8.283635 4.278560 0.000000 -0.000001 -0.000002 -8.882731 8.262606 -85.751208 -0.044322 -0.067924 -74.105654 -0.019921 -0.050010 -48.550480 0.000001 0.000001 0.000001 -4.486643 3.913948 -90.411617 -1.102460 -0.685691 -62.310928 -0.105569 1.186457 -72.507014 -0.000001 -0.000001 0.000003 -5.482386 2.419670 -86.651598 -0.067881 -4.899607 -76.606889 1.504232 0.540532 -67.246163 0.000000 0.000001 0.000009 -3.609632 -7.817625 -81.260489 0.002863 -4.390535 -67.459880 1.841012 0.670616 -69.586835 0.000001 0.000002 -0.000003 0.684038 9.214350 1.964377 12.485515 5.754236 62.438065 -43.280634 87.098709 40.372528 -0.232316 -2.734681 -11.610680 24.918367 -21.323352 30.343047 9.041921 8.262082 -18.001776 -16.109836 -19.128879 -12.401659 -0.000002 -0.000002 0.000003 -0.063525 -3.017239 61.424397 0.006468 4.395150 66.609193 1.919186 -0.429148 59.456687 -0.000000 0.000000 0.000001 -1.221735 -0.129483 68.273690 -0.078698 4.899237 84.501755 0.922028 -1.332258 32.715657 0.000001 0.000002 -0.000001 0.879113 -4.638597 79.192403 -0.722304 1.146361 73.254400 -0.065405 -1.198577 39.144378 -0.000000 -0.000004 -0.000004 -3.959146 0.098071 86.766796 -0.027281 0.052922 54.416131 -0.006516 0.028377 25.829839 0.000000 -0.000002 0.000005 -46.061829 -8.194384 2.223133 66.142493 5.346511 4.063925 19.859125 -1.754998 -3.684411 -13.636664 -2.827839 -7.208236 -0.000001 0.000001 0.000000 -19.279315 -15.277009 -0.149164 46.652743 1.798353 2.045246 -12.568014 1.319902 -6.634628 -20.903114 6.354999 -0.248706 -0.000000 0.000000 -0.000000 
-16.399164 86.602341 2.713018 30.352760 -78.273394 29.836315 21.142637 3.077834 -1.089155 1.837376 1.018221 -1.657084 1.808746 1.080774 -1.707481 1.770899 11.554309 -5.831283 -9.053618 27.191753 -7.320938 -0.000001 -0.000001 0.000000 -0.617733 -18.282214 9.791900 7.900300 -11.545479 -55.478044 -98.182945 -61.592570 -85.194623 -1.942348 -20.253324 -11.486841 4.766509 -0.870675 -14.442462 15.732332 12.674826 8.828582 63.225149 -8.283635 4.278556 0.000000 -0.000003 -0.000002 -8.882734 8.262611 -85.751208 -0.044321 -0.067922 -74.105654 -0.019919 -0.050005 -48.550480 0.000000 0.000002 -0.000004 -4.486644 3.913950 -90.411617 -1.102457 -0.685690 -62.310921 -0.105570 1.186455 -72.507021 -0.000000 0.000002 0.000000 -5.482388 2.419673 -86.651598 -0.067884 -4.899608 -76.606896 1.504230 0.540533 -67.246163 -0.000000 0.000000 0.000008 -3.609634 -7.817621 -81.260495 0.002859 -4.390537 -67.459880 1.841011 0.670619 -69.586835 -0.000001 0.000003 0.000002 0.671527 8.393430 2.656810 14.664659 6.608022 65.970673 -8.508472 84.938600 6.158849 -0.232322 -2.734683 -11.610678 24.918371 -21.323354 30.343044 9.041918 8.262085 -18.001778 -16.109836 -19.128884 -12.401657 0.000003 -0.000001 0.000001 -0.063517 -3.017245 61.424397 0.006470 4.395152 66.609193 1.919186 -0.429142 59.456687 -0.000000 -0.000003 -0.000002 -1.221735 -0.129490 68.273690 -0.078701 4.899239 84.501748 0.922031 -1.332258 32.715660 0.000001 0.000000 -0.000008 0.879108 -4.638600 79.192410 -0.722300 1.146361 73.254394 -0.065402 -1.198582 39.144381 0.000003 0.000002 -0.000003 -3.959145 0.098069 86.766803 -0.027275 0.052921 54.416131 -0.006514 0.028369 25.829842 -0.000001 -0.000000 0.000006 -52.204263 -5.251884 -0.065458 55.584295 1.862118 1.948469 31.135714 -0.732770 2.285835 -16.004550 1.945912 -8.477053 0.000000 0.000000 0.000001 -6.189311 -14.993899 3.248258 37.902171 1.078624 0.628465 -9.666064 0.744567 -5.367112 -29.560799 5.746346 -0.405830 -0.000000 0.000000 -0.000000 
-29.493301 89.140686 2.265873 29.640924 -76.960017 29.187734 19.656142 3.916610 -2.325124 1.874422 1.227160 -1.778734 1.837622 1.279603 -1.831642 2.275365 11.154022 -5.887407 -9.113104 25.736349 -6.174187 0.000001 -0.000000 0.000001 -0.697666 -17.106079 9.081968 11.018102 -11.731284 -54.413921 -102.399986 -63.193491 -89.670179 -1.830173 -18.212556 -12.029558 4.766506 -0.870674 -14.442466 15.732332 12.674827 8.828577 63.225149 -8.283638 4.278561 0.000000 -0.000001 -0.000001 -8.882734 8.262606 -85.751208 -0.044323 -0.067925 -74.105654 -0.019919 -0.050005 -48.550484 0.000001 -0.000000 -0.000000 -4.486642 3.913949 -90.411624 -1.102459 -0.685690 -62.310921 -0.105570 1.186453 -72.507007 -0.000001 0.000001 0.000005 -5.482389 2.419671 -86.651598 -0.067884 -4.899607 -76.606896 1.504230 0.540531 -67.246156 -0.000001 0.000000 0.000004 -3.609633 -7.817621 -81.260495 0.002862 -4.390538 -67.459880 1.841007 0.670620 -69.586842 0.000003 0.000003 0.000001 0.666194 7.623617 3.152826 16.176839 6.184011 69.275795 4.505111 83.646499 -6.271358 -0.232321 -2.734682 -11.610679 24.918371 -21.323352 30.343044 9.041915 8.262084 -18.001778 -16.109840 -19.128879 -12.401661 0.000001 0.000000 -0.000002 -0.063519 -3.017240 61.424397 0.006473 4.395149 66.609200 1.919180 -0.429145 59.456687 -0.000000 -0.000001 -0.000001 -1.221740 -0.129489 68.273690 -0.078702 4.899241 84.501755 0.922031 -1.332257 32.715653 0.000001 0.000001 -0.000004 0.879109 -4.638593 79.192410 -0.722300 1.146360 73.254394 -0.065406 -1.198584 39.144381 0.000002 -0.000003 -0.000003 -3.959144 0.098073 86.766803 -0.027273 0.052921 54.416127 -0.006513 0.028375 25.829841 0.000004 0.000001 0.000002 -53.584282 -3.075608 -2.029265 42.236374 -0.814656 0.682243 39.179816 0.170652 4.546139 -12.773536 3.831994 -7.497831 -0.000003 -0.000000 0.000000 6.462050 -14.715912 4.769997 24.099805 1.616932 1.959857 3.278142 0.059518 -2.722261 -40.819505 5.785387 -1.955223 0.000000 -0.000000 -0.000000 
-41.236275 91.663658 1.712567 27.606759 -76.037784 27.008286 18.738317 4.607380 -3.071211 2.030458 1.434288 -1.764533 1.993479 1.475333 -1.823598 2.731309 10.751166 -5.919030 -9.175364 24.494628 -5.531731 -0.000001 0.000002 0.000001 -0.960911 -17.613407 8.357434 12.121251 -11.735815 -53.341722 -102.568760 -63.009820 -89.347556 -1.702341 -17.084926 -12.158555 4.766509 -0.870673 -14.442466 15.732328 12.674826 8.828582 63.225149 -8.283638 4.278558 -0.000000 0.000001 -0.000002 -8.882737 8.262609 -85.751208 -0.044318 -0.067921 -74.105654 -0.019917 -0.050010 -48.550484 0.000001 -0.000000 -0.000000 -4.486642 3.913948 -90.411617 -1.102458 -0.685688 -62.310921 -0.105568 1.186453 -72.507014 0.000001 -0.000001 -0.000000 -5.482388 2.419670 -86.651598 -0.067884 -4.899607 -76.606889 1.504231 0.540532 -67.246156 -0.000000 -0.000000 0.000002 -3.609635 -7.817624 -81.260495 0.002860 -4.390537 -67.459880 1.841010 0.670620 -69.586842 0.000000 0.000003 0.000002 0.683886 6.738358 4.212506 17.597042 6.764566 71.178016 10.392641 83.407156 -11.606137 -0.232316 -2.734683 -11.610678 24.918369 -21.323354 30.343040 9.041918 8.262084 -18.001778 -16.109834 -19.128877 -12.401668 0.000001 -0.000001 -0.000002 -0.063529 -3.017244 61.424397 0.006469 4.395152 66.609200 1.919183 -0.429140 59.456687 -0.000002 -0.000001 0.000001 -1.221738 -0.129491 68.273690 -0.078700 4.899235 84.501755 0.922024 -1.332258 32.715657 0.000003 -0.000002 -0.000004 0.879103 -4.638597 79.192410 -0.722296 1.146362 73.254387 -0.065404 -1.198582 39.144381 -0.000001 -0.000002 -0.000003 -3.959141 0.098068 86.766803 -0.027274 0.052916 54.416127 -0.006513 0.028370 25.829839 0.000003 -0.000001 0.000004 -52.979428 -2.244069 -3.467178 30.171862 -2.951075 0.477711 35.671339 -0.906516 1.293841 0.940101 2.658415 -3.123959 -0.000001 0.000000 0.000000 18.153671 -15.593458 6.677139 11.774514 4.358026 1.296387 16.141243 0.576139 3.658092 -42.024057 6.421715 -7.214705 0.000000 -0.000000 0.000000 
-51.005573 92.161423 0.861044 25.208487 -75.783551 24.531721 18.345311 4.819130 -3.576468 2.166776 1.524691 -1.665459 2.137036 1.559120 -1.727471 2.952547 10.566624 -5.714615 -9.051581 24.111070 -5.309522 -0.000000 -0.000000 0.000001 -0.727906 -17.234225 9.011540 11.775260 -12.960368 -52.873570 -100.311648 -63.972460 -87.068567 -1.515747 -16.774618 -11.860016 4.766503 -0.870675 -14.442464 15.732326 12.674827 8.828582 63.225149 -8.283633 4.278560 0.000001 -0.000001 -0.000004 -8.882734 8.262607 -85.751208 -0.044322 -0.067921 -74.105647 -0.019923 -0.050014 -48.550484 0.000000 -0.000000 -0.000000 -4.486642 3.913947 -90.411624 -1.102458 -0.685690 -62.310921 -0.105567 1.186458 -72.507007 -0.000001 0.000001 0.000003 -5.482386 2.419669 -86.651598 -0.067883 -4.899610 -76.606896 1.504232 0.540531 -67.246163 0.000001 -0.000002 0.000001 -3.609632 -7.817623 -81.260495 0.002859 -4.390538 -67.459880 1.841011 0.670622 -69.586835 -0.000002 0.000003 0.000002 0.731140 6.415492 5.501722 18.542611 4.556110 71.913102 -0.006908 84.643652 -1.027536 -0.232322 -2.734682 -11.610677 24.918373 -21.323352 30.343040 9.041916 8.262085 -18.001780 -16.109831 -19.128881 -12.401666 0.000005 -0.000001 0.000002 -0.063522 -3.017243 61.424397 0.006473 4.395158 66.609200 1.919183 -0.429148 59.456687 -0.000003 -0.000003 -0.000002 -1.221732 -0.129487 68.273690 -0.078700 4.899240 84.501755 0.922033 -1.332256 32.715657 0.000003 -0.000003 -0.000004 0.879107 -4.638597 79.192410 -0.722298 1.146363 73.254394 -0.065403 -1.198583 39.144381 -0.000002 -0.000001 -0.000000 -3.959143 0.098073 86.766803 -0.027271 0.052917 54.416131 -0.006508 0.028372 25.829841 0.000001 -0.000000 0.000002 -51.916589 -1.762491 -4.253175 20.688156 -3.752751 0.940917 21.300725 -1.884643 -4.453236 0.567651 2.576716 -3.111692 0.000000 0.000000 -0.000000 23.363055 -17.533804 6.792031 10.647892 5.790420 -0.225547 28.122390 1.403830 7.553274 -33.443977 4.382644 -8.053798 -0.000003 0.000000 0.000000 
